<svg xmlns="http://www.w3.org/2000/svg" viewBox="0 0 141.7 76.2"><linearGradient id="a" gradientUnits="userSpaceOnUse" x1="2162.72" y1="164.384" x2="2310.608" y2="164.384" gradientTransform="translate(-159.715 3.562) scale(.1198)"><stop offset="0" stop-color="#009dda"/><stop offset="1" stop-color="#1d2088"/></linearGradient><path d="M117.4 31c0-8.9-17.7 0-17.7-8.9v-6.6c0 8.9 17.7 0 17.7 8.9V31z" fill="url(#a)"/><linearGradient id="b" gradientUnits="userSpaceOnUse" x1="2088.751" y1="219.822" x2="2310.608" y2="219.822" gradientTransform="translate(-159.715 3.562) scale(.1198)"><stop offset="0" stop-color="#1d2088"/><stop offset="1" stop-color="#009dda"/></linearGradient><path d="M117.4 31c0 2.2-3.3 4.4-13.3 4.4S90.8 31 90.8 31v-6.6s3.3 4.4 13.3 4.4 13.3-2.2 13.3-4.4V31z" fill="url(#b)"/><linearGradient id="c" gradientUnits="userSpaceOnUse" x1="2162.72" y1="108.906" x2="2384.528" y2="108.906" gradientTransform="translate(-159.715 3.562) scale(.1198)"><stop offset="0" stop-color="#1d2088"/><stop offset="1" stop-color="#009dda"/></linearGradient><path d="M99.7 22.1c0-2.2 3.3-4.4 13.3-4.4s13.3 4.4 13.3 4.4v-6.6s-3.3-4.4-13.3-4.4-13.3 2.2-13.3 4.4v6.6z" fill="url(#c)"/><linearGradient id="d" gradientUnits="userSpaceOnUse" x1="1989.225" y1="41.978" x2="1989.225" y2="263.782" gradientTransform="translate(-159.715 3.562) scale(.1198)"><stop offset="0" stop-color="#009dda"/><stop offset="1" stop-color="#1d2088"/></linearGradient><path d="M77.5 35.4c-8.9 0-6.4-26.6-6.4-26.6h9.7s-3.3 26.6 5.5 26.6h-8.8z" fill="url(#d)"/><linearGradient id="e" gradientUnits="userSpaceOnUse" x1="1916.863" y1="-31.918" x2="1916.863" y2="253.371" gradientTransform="translate(-159.715 3.562) scale(.1198)"><stop offset="0" stop-color="#009dda"/><stop offset="1" stop-color="#1d2088"/></linearGradient><path d="M86.4 0h-8.9s-13.9 20.2-24 30.1c.9 1.7 1.9 3.1 3.1 4.1C70.5 27.9 86.4 0 86.4 0z" fill="url(#e)"/><linearGradient id="f" gradientUnits="userSpaceOnUse" x1="1768.593" y1="219.378" x2="1768.593" y2="263.84" gradientTransform="translate(-159.715 3.562) scale(.1198)"><stop offset="0" stop-color="#009dda"/><stop offset="1" stop-color="#1d2088"/></linearGradient><path d="M53.5 30.1c-1.8 1.7-3.7 3.1-5.7 4.1 1 .8 2 1.3 3.2 1.3 2 0 3.9-.5 5.6-1.3-1.2-1-2.2-2.4-3.1-4.1z" fill="url(#f)"/><linearGradient id="g" gradientUnits="userSpaceOnUse" x1="1749.906" y1="13.65" x2="1749.906" y2="235.51" gradientTransform="translate(-159.202 6.957) scale(.1198)"><stop offset="0" stop-color="#009dda"/><stop offset="1" stop-color="#1d2088"/></linearGradient><path d="M53.5 30.1c-4.2-7.7 1.3-21.3 1.3-21.3h-8.9s-4.6 20.1 1.8 25.3c1 .8 2 1.3 3.2 1.3 2 0 3.9-.5 5.6-1.3-1.1-.9-2.1-2.3-3-4z" fill="url(#g)"/><linearGradient id="h" gradientUnits="userSpaceOnUse" x1="1647.437" y1="-31.918" x2="1647.437" y2="263.858" gradientTransform="translate(-159.715 3.562) scale(.1198)"><stop offset="0" stop-color="#009dda"/><stop offset="1" stop-color="#1d2088"/></linearGradient><path d="M59.8 0S42.1 35.4 24.4 35.4h-8.9C33.2 35.4 50.9 0 50.9 0h8.9z" fill="url(#h)"/><linearGradient id="i" gradientUnits="userSpaceOnUse" x1="2144.212" y1="34.974" x2="2088.748" y2="34.974" gradientTransform="translate(-159.715 3.562) scale(.1198)"><stop offset="0" stop-color="#1d2088"/><stop offset="1" stop-color="#009dda"/></linearGradient><path d="M97.4 7.7c0 4.4-6.6 4.4-6.6 4.4s3.3 0 3.3-4.4-3.3-4.4-3.3-4.4 6.6 0 6.6 4.4z" fill="url(#i)"/><linearGradient id="j" gradientUnits="userSpaceOnUse" x1="2088.751" y1="11.869" x2="2144.214" y2="11.869" gradientTransform="translate(-159.715 3.562) scale(.1198)"><stop offset="0" stop-color="#1d2088"/><stop offset="1" stop-color="#009dda"/></linearGradient><path d="M90.8 3.3s0-1.1 3.3-1.1 3.3 1.1 3.3 1.1v4.4s0-1.1-3.3-1.1-3.3 1.1-3.3 1.1V3.3z" fill="url(#j)"/><path d="M35.1 63.6v9.5c0 1.9 0 2.4 2.1 2.4v.4h-5.1v-.4c2.1 0 2.1-.6 2.1-2.4V64c0-1.8-.2-2.4-2.1-2.4v-.4h4.2l5.3 11.5 5.2-11.5h4.1v.4c-2.1 0-2.1.6-2.1 2.4v9c0 1.9 0 2.4 2.1 2.4v.4h-6.2v-.4c2.1 0 2.1-.6 2.1-2.4v-9.5l-5.6 12.3h-.4l-5.7-12.2zM61 74c0 1.3.5 1.5 1.5 1.5v.4h-4.8v-.4c1 0 1.5-.2 1.5-1.5v-5.4c0-1.5-.5-1.5-.8-1.5-.2 0-.5.1-.7.2l-.2-.4 3-1.2h.5V74zm-1-13.5c.6 0 1.1.5 1.1 1.1 0 .6-.5 1.1-1.1 1.1-.6 0-1.1-.5-1.1-1.1.1-.6.6-1.1 1.1-1.1zm12.2 7.2c1.2-1.4 2.1-2.1 3.4-2.1 1.8 0 2.5 1.7 2.5 3.3v5c0 1.3.5 1.5 1.5 1.5v.4h-4.9v-.4c1 0 1.5-.2 1.5-1.5v-4.6c0-2.2-.9-2.4-1.6-2.4-1 0-1.8.7-2.5 1.4V74c0 1.3.5 1.5 1.5 1.5v.4h-4.8v-.4c1 0 1.5-.2 1.5-1.5v-5.4c0-1.5-.5-1.5-.8-1.5-.2 0-.5.1-.8.2l-.2-.4 3-1.2h.5v2zm20.7-4.3c0-1.5-.5-1.5-.8-1.5-.2 0-.5.1-.8.2l-.2-.4 3-1.2h.5v12.8c0 1.5.5 1.5.8 1.5.2 0 .5-.1.8-.2l.2.4-3 1.2h-.5v-1.4c-.8.9-1.7 1.4-2.9 1.4-2.6 0-4-2.6-4-4.9 0-2.6 1.9-5.6 4.8-5.6.8 0 1.6.2 2.2.8v-3.1zm0 5.7c0-1.3-.8-2.8-2.3-2.8-.8 0-2.6.7-2.6 4.2 0 2.7 1.3 4.5 3 4.5.8 0 1.4-.4 1.9-1v-4.9zm16-.1h-.4c-.3-1.5-.9-2.7-2.7-2.7-.8 0-1.7.4-1.7 1.3 0 2.4 5.5 2.1 5.5 5.5 0 1.8-1.7 3-3.4 3-.6 0-1.4-.2-2-.3-.1 0-.4-.1-.6-.1-.2 0-.4.1-.4.3h-.4v-3.5h.4c.2 1.6 1.4 3 3 3 .9 0 1.7-.5 1.7-1.5 0-2.6-5.2-2.2-5.2-5.4 0-1.8 1.3-3 3.1-3 .5 0 .8.1 1.3.2.3.1.6.2.8.2.3 0 .4-.2.5-.4h.4V69z" fill="#4d4d4d"/><linearGradient id="k" gradientUnits="userSpaceOnUse" x1="1330.999" y1="364.045" x2="1996.439" y2="364.045" gradientTransform="translate(-159.715 3.562) scale(.1198)"><stop offset=".006" stop-color="#1d2088"/><stop offset="1" stop-color="#009dda"/></linearGradient><path d="M0 45s35.4-17.7 79.7 10c0 0-44.3-18.8-79.7-1.1V45z" fill="url(#k)"/><linearGradient id="l" gradientUnits="userSpaceOnUse" x1="1848.53" y1="401.007" x2="2513.996" y2="401.007" gradientTransform="translate(-159.715 3.562) scale(.1198)"><stop offset="0" stop-color="#009dda"/><stop offset="1" stop-color="#1d2088"/></linearGradient><path d="M141.7 53.8s-35.4 17.7-79.7-10c0 0 44.3 18.8 79.7 1.1v8.9z" fill="url(#l)"/></svg>